<?xml version="1.0" standalone="no"?>
<!DOCTYPE svg PUBLIC "-//W3C//DTD SVG 20010904//EN"
 "http://www.w3.org/TR/2001/REC-SVG-20010904/DTD/svg10.dtd">
<svg version="1.0" xmlns="http://www.w3.org/2000/svg"
 width="640.000000pt" height="640.000000pt" viewBox="0 0 640.000000 640.000000"
 preserveAspectRatio="xMidYMid meet">
<metadata>
Created by potrace 1.14, written by Peter Selinger 2001-2017
</metadata>
<g transform="translate(0.000000,640.000000) scale(0.100000,-0.100000)"
fill="#000000" stroke="none">
<path d="M0 3200 l0 -3200 3200 0 3200 0 0 3200 0 3200 -3200 0 -3200 0 0
-3200z m3380 890 l0 -560 -70 0 -70 0 0 70 0 69 -50 -50 c-77 -77 -123 -94
-255 -94 -98 0 -116 3 -167 27 -151 71 -240 243 -225 437 8 96 33 165 85 235
133 176 412 197 566 42 l46 -45 0 214 0 215 70 0 70 0 0 -560z m-2357 485
c126 -38 247 -136 301 -243 l26 -52 -85 0 c-47 0 -85 4 -85 9 0 27 -83 110
-141 141 -62 34 -67 35 -179 35 -112 0 -117 -1 -178 -34 -34 -19 -80 -54 -103
-78 -145 -158 -142 -445 7 -598 109 -113 305 -145 452 -74 95 47 174 155 188
262 l7 47 -212 0 -212 0 3 53 3 52 283 3 282 2 0 -68 c0 -280 -233 -511 -517
-512 -126 0 -263 50 -354 129 -228 198 -235 588 -15 799 73 70 178 126 266
141 69 12 200 5 263 -14z m4727 -110 l0 -105 110 0 110 0 0 -55 0 -54 -107 -3
-108 -3 -3 -257 c-3 -299 1 -320 65 -337 21 -6 64 -11 96 -11 l57 0 0 -55 0
-55 -94 0 c-135 0 -196 25 -235 95 -13 25 -17 76 -21 325 l-5 295 -52 3 -53 3
0 54 0 54 53 3 52 3 3 103 3 102 64 0 65 0 0 -105z m-3676 -129 c32 -15 75
-49 101 -78 l45 -50 0 76 0 77 68 -3 67 -3 3 -412 2 -413 -70 0 -70 0 0 74 0
74 -58 -57 c-81 -81 -144 -104 -272 -99 -122 5 -184 33 -263 118 -149 160
-151 447 -6 605 85 92 171 127 306 121 75 -3 102 -8 147 -30z m2002 19 c59
-17 135 -69 169 -115 l25 -34 0 77 0 77 70 0 70 0 0 -439 c0 -252 -4 -461 -10
-491 -45 -235 -256 -354 -520 -294 -84 19 -174 74 -213 132 -31 43 -61 118
-53 131 3 4 32 8 65 9 l61 1 20 -38 c42 -83 134 -131 252 -131 80 0 129 18
176 63 64 61 76 97 80 243 l4 132 -59 -58 c-82 -79 -146 -103 -268 -98 -72 3
-102 9 -147 30 -147 68 -228 208 -228 393 1 133 29 217 102 300 95 107 261
153 404 110z m1106 -23 c145 -71 225 -211 216 -377 l-3 -60 -333 -3 -333 -2 7
-38 c26 -141 148 -233 294 -219 90 8 175 63 195 127 6 18 15 20 81 20 73 0 75
-1 69 -22 -24 -80 -103 -164 -194 -207 -51 -24 -67 -26 -176 -26 -109 0 -125
2 -177 27 -125 58 -207 173 -230 320 -22 145 22 297 112 386 83 83 170 113
312 108 85 -3 105 -7 160 -34z m-1362 -1962 l0 -560 -130 0 -130 0 0 560 0
560 130 0 130 0 0 -560z m-1727 504 c33 -8 77 -24 96 -34 84 -42 161 -154 161
-233 l0 -38 -137 3 -137 3 -8 32 c-11 44 -56 73 -113 75 -110 2 -152 -110 -65
-174 14 -10 79 -37 145 -61 199 -73 269 -118 312 -206 29 -58 24 -182 -9 -246
-53 -102 -150 -166 -281 -187 -213 -33 -425 68 -472 225 -30 101 -35 97 119
97 l134 0 12 -35 c18 -54 62 -85 120 -85 61 0 97 16 116 51 20 39 18 72 -7
103 -27 34 -70 55 -194 96 -192 62 -271 122 -302 229 -42 144 20 286 154 355
90 46 246 59 356 30z m895 -234 c27 -12 65 -37 83 -56 l34 -35 5 53 5 53 128
3 127 3 0 -426 0 -426 -127 3 -128 3 -5 53 -5 53 -34 -35 c-54 -56 -121 -81
-221 -81 -77 0 -92 3 -152 33 -139 68 -218 214 -218 403 0 205 109 368 279
416 61 17 167 9 229 -17z m1512 14 c126 -28 227 -114 273 -231 22 -57 38 -168
30 -216 l-6 -37 -292 -2 -292 -3 14 -47 c9 -33 24 -55 48 -74 66 -50 174 -41
217 17 l22 29 133 0 c103 0 133 -3 133 -13 0 -30 -54 -118 -99 -160 -98 -92
-226 -130 -366 -110 -219 31 -355 195 -355 428 0 304 237 488 540 419z"/>
<path d="M2865 4237 c-91 -36 -152 -106 -176 -200 -16 -66 -6 -182 21 -239 48
-104 137 -160 252 -160 124 0 214 63 259 182 28 74 24 214 -9 277 -26 50 -80
106 -125 130 -41 21 -180 28 -222 10z"/>
<path d="M1815 4226 c-121 -56 -185 -202 -155 -352 29 -146 135 -236 275 -236
187 0 312 168 276 372 -20 108 -79 185 -174 225 -57 23 -162 20 -222 -9z"/>
<path d="M3874 4231 c-63 -29 -109 -75 -139 -142 -25 -56 -27 -69 -23 -158 6
-139 50 -216 154 -267 140 -68 311 -5 376 140 33 73 33 210 0 281 -50 108
-138 165 -257 165 -46 0 -84 -7 -111 -19z"/>
<path d="M4933 4251 c-54 -14 -122 -60 -150 -102 -26 -40 -55 -127 -46 -141 2
-5 121 -8 264 -8 l259 0 0 28 c-2 78 -60 164 -134 197 -57 26 -145 38 -193 26z"/>
<path d="M2885 2441 c-96 -23 -153 -116 -142 -229 12 -110 86 -184 186 -184
110 0 181 83 181 212 0 135 -106 229 -225 201z"/>
<path d="M4292 2440 c-35 -21 -72 -74 -72 -102 0 -16 14 -18 161 -18 l162 0
-7 32 c-7 36 -38 73 -78 94 -40 21 -127 18 -166 -6z"/>
</g>
</svg>
